<?xml version="1.0" encoding="UTF-8" standalone="no"?>
<svg width="24px" height="24px" viewBox="0 0 24 24" version="1.1" xmlns="http://www.w3.org/2000/svg" xmlns:xlink="http://www.w3.org/1999/xlink">
    <!-- Generator: Sketch 3.7.2 (28276) - http://www.bohemiancoding.com/sketch -->
    <title>Slice 1</title>
    <desc>Created with Sketch.</desc>
    <defs></defs>
    <g id="Page-1" stroke="none" stroke-width="1" fill="none" fill-rule="evenodd">
        <path d="M12.06058,3.1042 C11.43138,3.1042 10.99798,3.5348 10.99798,4.1371 L10.99798,10.0969 C11.04098,10.956 10.54358,10.9863 10.38578,10.3433 L9.30638,6.0742 C9.06158,5.5071 8.47878,5.2391 7.88638,5.4736 C7.29408,5.708 7.16208,6.2994 7.31458,6.8841 L8.29188,10.8642 C8.71318,12.5799 8.49128,13.7343 7.67728,12.9694 L6.29098,11.3335 C5.84908,10.8206 5.06118,10.7452 4.52318,11.1656 C3.98518,11.5862 3.90798,12.3373 4.34998,12.8503 L8.40018,17.8098 C9.63888,19.2351 10.71048,19.9977 12.90938,20.0244 C17.90838,19.7214 16.74798,16.7667 19.89788,8.9726 C20.06278,8.4126 19.95888,7.9788 19.40458,7.7399 C18.85048,7.501 18.26588,7.7509 18.04548,8.2879 L16.66408,11.6854 C16.33248,12.458 15.73608,12.1801 16.06218,11.0545 L17.19638,5.7722 C17.31838,5.1699 16.98478,4.5927 16.35568,4.4759 C15.72658,4.3589 15.19568,4.7492 15.07358,5.3515 L14.07868,9.9361 C13.90868,10.8491 13.13788,10.9536 13.15778,9.8047 L13.15778,4.1725 C13.15778,3.5702 12.68958,3.1042 12.06058,3.1042 L12.06058,3.1042 Z" id="rect4685-6-2" fill="#0FBBAF"></path>
    </g>
</svg>