<?xml version="1.0" encoding="UTF-8" standalone="no"?>
<svg width="24px" height="24px" viewBox="0 0 24 24" version="1.1" xmlns="http://www.w3.org/2000/svg" xmlns:xlink="http://www.w3.org/1999/xlink">
    <!-- Generator: Sketch 3.7.2 (28276) - http://www.bohemiancoding.com/sketch -->
    <title>Slice 3</title>
    <desc>Created with Sketch.</desc>
    <defs></defs>
    <g id="Page-1" stroke="none" stroke-width="1" fill="none" fill-rule="evenodd">
        <path d="M11.997483,3 C11.368283,3 10.934883,3.4306 10.934883,4.0329 L10.934883,9.9927 C10.977883,10.8518 10.480483,10.8821 10.322683,10.2391 L9.24328297,5.97 C8.99848297,5.4029 8.41568297,5.1349 7.82328297,5.3694 C7.23098297,5.6038 7.09898297,6.1952 7.25148297,6.7799 L8.22878297,10.76 C8.65008297,12.4757 8.42818297,13.6301 7.61418297,12.8652 L6.22788297,11.2293 C5.78598297,10.7164 4.99808297,10.641 4.46008297,11.0614 C3.92208297,11.482 3.84488297,12.2331 4.28688297,12.7461 L8.33708297,17.7056 C9.57578297,19.1309 10.647383,19.8935 12.846283,19.9202 C17.845283,19.6172 16.684883,16.6625 19.834783,8.8684 C19.999683,8.3084 19.895783,7.8746 19.341483,7.6357 C18.787383,7.3968 18.202783,7.6467 17.982383,8.1837 L16.600983,11.5812 C16.269383,12.3538 15.672983,12.0759 15.999083,10.9503 L17.133283,5.668 C17.255283,5.0657 16.921683,4.4885 16.292583,4.3717 C15.663483,4.2547 15.132583,4.645 15.010483,5.2473 L14.015583,9.8319 C13.845583,10.7449 13.074783,10.8494 13.094683,9.7005 L13.094683,4.0683 C13.094683,3.466 12.626483,3 11.997483,3 L11.997483,3 Z" id="rect4685-6-2" fill="#FFFFFF"></path>
    </g>
</svg>