<?xml version="1.0" encoding="UTF-8" standalone="no"?>
<svg width="48px" height="48px" viewBox="0 0 48 48" version="1.1" xmlns="http://www.w3.org/2000/svg" xmlns:xlink="http://www.w3.org/1999/xlink">
    <!-- Generator: Sketch 3.7.1 (28215) - http://www.bohemiancoding.com/sketch -->
    <title>Artboard 1</title>
    <desc>Created with Sketch.</desc>
    <defs>
        <path d="M1.10635776,0.0007 L36.8936456,0.0007 C37.5065687,0.0007 38.0000017,0.4941 38.0000017,1.1069 L38.0000017,32.8938 C38.0000017,33.5066 37.5065687,34 36.8936456,34 L1.10635776,34 C0.493434684,34 1.69999998e-06,33.5066 1.69999998e-06,32.8938 L1.69999998e-06,1.1069 C1.69999998e-06,0.4941 0.493434684,0.0007 1.10635776,0.0007 L1.10635776,0.0007 Z" id="path-1"></path>
        <filter x="-50%" y="-50%" width="200%" height="200%" filterUnits="objectBoundingBox" id="filter-2">
            <feOffset dx="0" dy="1" in="SourceAlpha" result="shadowOffsetOuter1"></feOffset>
            <feGaussianBlur stdDeviation="0.5" in="shadowOffsetOuter1" result="shadowBlurOuter1"></feGaussianBlur>
            <feColorMatrix values="0 0 0 0 0   0 0 0 0 0   0 0 0 0 0  0 0 0 0.2 0" type="matrix" in="shadowBlurOuter1"></feColorMatrix>
        </filter>
    </defs>
    <g id="Page-1" stroke="none" stroke-width="1" fill="none" fill-rule="evenodd">
        <g id="Artboard-1">
            <g id="Group" transform="translate(5.000000, 8.000000)">
                <g id="path4604">
                    <use fill="black" fill-opacity="1" filter="url(#filter-2)" xlink:href="#path-1"></use>
                    <use fill="#0FBBAF" fill-rule="evenodd" xlink:href="#path-1"></use>
                </g>
                <path d="M27.054688,7.513672 C26.804109,7.523134 26.561937,7.633022 26.373047,7.826172 C25.396617,8.822972 21.904363,12.328209 20.039062,14.162109 L25.273438,19.380859 L19.015625,25.734375 C19.014433,25.733551 19.00515,25.725478 19.003906,25.724609 L19.003906,25.701172 C16.444716,23.272272 13.918438,20.792284 11.361328,18.333984 L11.337891,18.310547 L11.310547,18.289062 C10.044737,17.233262 9.312792,15.517834 9.576172,13.927734 L9.578125,13.912109 L9.582031,13.896484 C9.857015,11.795954 11.957496,9.953199 14.074219,9.998047 C14.484548,9.992611 14.89859,10.083824 15.212891,10.150391 C16.213566,10.365038 17.141914,11.267956 18,12.136719 L17.996094,12.140625 L18.464844,12.605469 L19.683594,13.818359 L22.140625,11.361328 C22.517975,10.984028 22.726455,10.261241 22.140625,9.681641 C21.840935,9.381941 21.511537,9.289459 21.210938,9.318359 C20.910328,9.347359 20.638498,9.497141 20.455078,9.681641 C20.068741,10.068047 19.658187,10.478538 19.3125,10.824219 C18.427861,9.942672 17.057947,8.610413 15.625,8.298828 C15.11329,8.167928 14.586014,8.101009 14.058594,8.099609 C14.055594,8.099509 14.052828,8.099609 14.048828,8.099609 C14.043828,8.099509 14.039856,8.099609 14.035156,8.099609 L14.035156,8.101562 C10.861776,8.036562 8.110529,10.532053 7.693359,13.626953 C7.310469,15.968153 8.333401,18.292459 10.087891,19.755859 L10.037109,19.710938 C12.602079,22.176737 15.363741,24.832869 17.957031,27.292969 C18.322271,27.611269 18.619726,27.664062 19.003906,27.664062 L19.003906,27.662109 C19.300145,27.66791 19.637153,27.56694 19.982422,27.234375 L25.771484,21.431641 C25.771484,21.431641 29.64902,17.567216 31.5625,15.666016 C31.97083,15.257616 32.000127,14.685744 31.591797,14.277344 C31.183567,13.869344 30.599436,13.883016 30.191406,14.291016 L26.054688,18.427734 C25.946307,18.450734 25.717416,18.212625 25.728516,18.078125 L31.839844,11.964844 C32.248184,11.556444 32.278571,10.972853 31.869141,10.564453 C31.460811,10.156053 30.916143,10.213094 30.507812,10.621094 L25.667969,15.462891 C25.541289,15.484891 25.265891,15.245984 25.300781,15.083984 L31.029297,9.353516 C31.357817,9.002116 31.553652,8.3778 31.132812,7.9375 C30.724483,7.5291 30.097793,7.556697 29.689453,7.966797 L23.779297,13.878906 C23.637517,13.878906 23.421228,13.680203 23.423828,13.533203 L27.75,9.207031 C28.15793,8.798831 28.232209,8.228541 27.787109,7.806641 C27.564554,7.595641 27.305266,7.504209 27.054688,7.513672 L27.054688,7.513672 Z" id="path4620" fill="#FFFFFF"></path>
            </g>
        </g>
    </g>
</svg>