<?xml version="1.0" encoding="UTF-8" standalone="no"?>
<svg width="64px" height="64px" viewBox="0 0 64 64" version="1.1" xmlns="http://www.w3.org/2000/svg" xmlns:xlink="http://www.w3.org/1999/xlink">
    <!-- Generator: Sketch 3.6.1 (26313) - http://www.bohemiancoding.com/sketch -->
    <title>我要求助_64px</title>
    <desc>Created with Sketch.</desc>
    <defs></defs>
    <g id="Page-1" stroke="none" stroke-width="1" fill="none" fill-rule="evenodd">
        <g id="我要求助_64px" fill="#B5B5B6">
            <path d="M30.5782623,6 C28.6445736,6 27.3126272,7.32334133 27.3126272,9.17435964 L27.3126272,27.4903134 C27.4447769,30.1305422 25.9161425,30.2236617 25.4311837,28.2475621 L22.1139179,15.1275517 C21.3615864,13.3847118 19.5704965,12.5610808 17.7499033,13.2817579 C15.9296175,14.0021276 15.5239486,15.8196475 15.9926191,17.6165766 L18.9961061,29.8484179 C20.2908662,35.1211924 19.6089121,38.6689519 17.1072868,36.3182232 L12.8468407,31.290694 C11.4887717,29.7144242 9.0673582,29.4827012 7.41394985,30.7746953 C5.7605415,32.0673042 5.52328662,34.375622 6.881663,35.9521991 L19.328939,51.1939812 C23.1357735,55.574284 26.4290679,57.9179442 33.1868367,58 C48.5500121,57.0688053 44.9838131,47.9882744 54.6642424,24.0350587 C55.1710213,22.3140388 54.8517106,20.9808631 53.1482083,20.2466638 C51.4453206,19.5124644 49.6486988,20.2804695 48.9713546,21.9308046 L44.7259674,32.3721705 C43.7068778,34.7465633 41.8739917,33.8925072 42.8761784,30.4332573 L46.3618583,14.1994303 C46.7367947,12.348412 45.7115586,10.5745322 43.7781772,10.2155766 C41.8447958,9.85600643 40.2132075,11.0554958 39.8379638,12.9065141 L36.7803876,26.9961348 C36.2579351,29.8020118 33.8890743,30.1231664 33.9502319,26.5923098 L33.9502319,9.28315268 C33.9502319,7.43213437 32.5113364,6 30.5782623,6 L30.5782623,6 Z" id="rect4685-6-2"></path>
        </g>
    </g>
</svg>