<?xml version="1.0" encoding="UTF-8" standalone="no"?>
<svg width="24px" height="24px" viewBox="0 0 24 24" version="1.1" xmlns="http://www.w3.org/2000/svg" xmlns:xlink="http://www.w3.org/1999/xlink">
    <!-- Generator: Sketch 3.6.1 (26313) - http://www.bohemiancoding.com/sketch -->
    <title>我要求助_24px</title>
    <desc>Created with Sketch.</desc>
    <defs></defs>
    <g id="Page-1" stroke="none" stroke-width="1" fill="none" fill-rule="evenodd">
        <g id="我要求助_24px" fill="#B5B5B6">
            <path d="M12.3058749,1.25 C11.5147314,1.25 10.969783,1.79142782 10.969783,2.54874778 L10.969783,10.0424809 C11.0238503,11.1226961 10.3984295,11.1607947 10.2000149,10.3522994 L8.842799,4.98441852 C8.53499238,4.27135834 7.80219134,3.93438051 7.05731944,4.22923611 C6.31257328,4.52396598 6.14659912,5.26758049 6.33834957,6.00277057 L7.56718702,11.0072686 C8.0969212,13.1645554 7.81790859,14.6160749 6.79440129,13.6543049 L5.05129543,11.597357 C4.49565922,10.9524468 3.50496954,10.8576404 2.82849911,11.3862429 C2.15202868,11.9150969 2.05495895,12.859515 2.6107209,13.504551 L7.70336127,19.740527 C9.26087784,21.5326706 10.6082862,22.4915486 13.3731391,22.5251206 C19.6587815,22.1441345 18.1997178,18.4289539 22.160339,8.62880864 C22.367681,7.92467586 22.2370392,7.37922442 21.5400735,7.07883635 C20.8433592,6.77844827 20.1082949,7.09266753 19.8311683,7.76788057 L18.0942236,12.039829 C17.6772764,13.0112808 16.927375,12.6618549 17.3374066,11.246548 L18.763527,4.60468977 C18.9169274,3.84736981 18.4974654,3.12161009 17.7064477,2.97474811 C16.9154299,2.82763465 16.2478869,3.31839006 16.0943608,4.07571002 L14.8433935,9.84029425 C14.6296389,10.9882822 13.6604504,11.1196784 13.6854722,9.67507452 L13.6854722,2.59325903 C13.6854722,1.83593907 13.0967669,1.25 12.3058749,1.25 L12.3058749,1.25 Z" id="rect4685-6-2"></path>
        </g>
    </g>
</svg>