<?xml version="1.0" encoding="UTF-8" standalone="no"?>
<svg width="24px" height="24px" viewBox="0 0 24 24" version="1.1" xmlns="http://www.w3.org/2000/svg" xmlns:xlink="http://www.w3.org/1999/xlink">
    <!-- Generator: Sketch 3.6.1 (26313) - http://www.bohemiancoding.com/sketch -->
    <title>远程连接_24px</title>
    <desc>Created with Sketch.</desc>
    <defs></defs>
    <g id="Page-1" stroke="none" stroke-width="1" fill="none" fill-rule="evenodd">
        <g id="远程连接_24px" fill="#B5B5B6">
            <g id="Group" transform="translate(2.000000, 3.000000)">
                <path d="M16,9 C13.2385714,9 11,11.2385714 11,14 C11,16.7614286 13.2385714,19 16,19 C18.7614286,19 21,16.7614286 21,14 C21,11.2385714 18.7614286,9 16,9 M16.1690076,15.5465256 L14.0602018,16.9932295 C13.9775794,17.0496894 13.8846293,17.0769231 13.7923247,17.0769231 C13.6361168,17.0769231 13.4824909,16.9992076 13.3888953,16.8550686 C13.2410788,16.6265717 13.3004636,16.3170382 13.5231566,16.1642641 L15.0181044,15.138021 L13.528966,14.1469823 C13.3043366,13.9975294 13.2404333,13.6893244 13.3850224,13.4581706 C13.530257,13.2270168 13.8304084,13.1619218 14.0543924,13.3100462 L16.1631982,14.7135748 C16.3000415,14.804575 16.3833093,14.9606702 16.3846002,15.1287217 C16.3858912,15.2961089 16.3045599,15.4528684 16.1690076,15.5465256 M15.8309924,12.4534744 L17.9397982,11.0067705 C18.0224206,10.9503106 18.1153707,10.9230769 18.2076753,10.9230769 C18.3638832,10.9230769 18.5175091,11.0007924 18.6111047,11.1449314 C18.7589212,11.3734283 18.6995364,11.6829618 18.4768434,11.8357359 L16.9818956,12.861979 L18.471034,13.8530177 C18.6956634,14.0024706 18.7595667,14.3106756 18.6149776,14.5418294 C18.469743,14.7729832 18.1695916,14.8380782 17.9456076,14.6899538 L15.8368018,13.2864252 C15.6999585,13.195425 15.6166907,13.0393298 15.6153998,12.8712783 C15.6141088,12.7038911 15.6954401,12.5471316 15.8309924,12.4534744" id="Fill-1"></path>
                <path d="M10.3414114,16 L4.50123084,16 C4.22975063,16 4,16.2238576 4,16.5 C4,16.7680664 4.22440869,17 4.50123084,17 L10.8026932,17 C10.6197688,16.6837782 10.4648756,16.3493123 10.3414114,16 L10.3414114,16 Z M10.0829584,15 L6,15 L6,16 L10.3414114,16 C10.2277312,15.6783692 10.1406962,15.3441518 10.0829584,15 L10.0829584,15 Z M19,8.80269317 L19,1.00748397 C19,0.448920205 18.5546258,0 18.0052288,0 L0.994771168,0 C0.450925395,0 0,0.45106594 0,1.00748397 L0,13.992516 C0,14.5510798 0.445374222,15 0.994771168,15 L10.0829584,15 C10.0283988,14.6747915 10,14.3407122 10,14 C10,13.2987292 10.1203084,12.6255579 10.3414114,12 L1,12 L1,1 L18,1 L18,8.34141142 C18.3493123,8.46487561 18.6837782,8.61976876 19,8.80269317 L19,8.80269317 Z" id="Combined-Shape"></path>
                <path d="M17,8.08295844 L17,2 L2,2 L2,11 L10.8026932,11 C11.8401214,9.20659589 13.7791529,8 16,8 C16.3407122,8 16.6747915,8.0283988 17,8.08295844 L17,8.08295844 Z" id="Combined-Shape"></path>
            </g>
        </g>
    </g>
</svg>