<?xml version="1.0" encoding="UTF-8" standalone="no"?>
<svg width="64px" height="64px" viewBox="0 0 64 64" version="1.1" xmlns="http://www.w3.org/2000/svg" xmlns:xlink="http://www.w3.org/1999/xlink">
    <!-- Generator: Sketch 3.6.1 (26313) - http://www.bohemiancoding.com/sketch -->
    <title>选项设置_64px</title>
    <desc>Created with Sketch.</desc>
    <defs></defs>
    <g id="Page-1" stroke="none" stroke-width="1" fill="none" fill-rule="evenodd">
        <g id="选项设置_64px" fill="#B5B5B6">
            <g id="用户手册-深度商店64px-22" transform="translate(11.000000, 10.000000)">
                <g id="Group">
                    <path d="M42,3 C42,1.343 40.657,0 39,0 L3,0 C1.343,0 0,1.343 0,3 L0,42 C0,43.657 1.343,45 3,45 L39,45 C40.657,45 42,43.657 42,42 L42,3 L42,3 Z M12,38 L5,38 L5,31 L12,31 L12,38 L12,38 Z M12,26 L5,26 L5,19 L12,19 L12,26 L12,26 Z M12,14 L5,14 L5,7 L12,7 L12,14 L12,14 Z M37,36 L16,36 L16,33 L37,33 L37,36 L37,36 Z M37,24 L16,24 L16,21 L37,21 L37,24 L37,24 Z M37,12 L16,12 L16,9 L37,9 L37,12 L37,12 Z" id="Shape"></path>
                    <path d="M7.41,11.178 L5.947,9.716 C5.851,9.62 5.696,9.62 5.6,9.716 L5.224,10.092 C5.128,10.188 5.128,10.343 5.224,10.439 L6.8,12.015 L7.411,12.626 C7.507,12.722 7.662,12.722 7.758,12.626 L8.308,12.076 L11.754,8.63 C11.85,8.534 11.85,8.379 11.754,8.283 L11.378,7.907 C11.282,7.811 11.127,7.811 11.031,7.907 L7.759,11.179 C7.661,11.273 7.506,11.273 7.41,11.178 L7.41,11.178 Z" id="Shape"></path>
                    <path d="M7.41,23.229 L5.947,21.767 C5.851,21.671 5.696,21.671 5.6,21.767 L5.224,22.143 C5.128,22.239 5.128,22.394 5.224,22.49 L6.8,24.066 L7.411,24.677 C7.507,24.773 7.662,24.773 7.758,24.677 L8.308,24.127 L11.754,20.681 C11.85,20.585 11.85,20.43 11.754,20.334 L11.378,19.958 C11.282,19.862 11.127,19.862 11.031,19.958 L7.759,23.23 C7.661,23.325 7.506,23.325 7.41,23.229 L7.41,23.229 Z" id="Shape"></path>
                </g>
            </g>
        </g>
    </g>
</svg>