<?xml version="1.0" encoding="UTF-8" standalone="no"?>
<svg width="64px" height="64px" viewBox="0 0 64 64" version="1.1" xmlns="http://www.w3.org/2000/svg" xmlns:xlink="http://www.w3.org/1999/xlink">
    <!-- Generator: Sketch 3.6.1 (26313) - http://www.bohemiancoding.com/sketch -->
    <title>远程连接_64px</title>
    <desc>Created with Sketch.</desc>
    <defs></defs>
    <g id="Page-1" stroke="none" stroke-width="1" fill="none" fill-rule="evenodd">
        <g id="远程连接_64px" fill="#B5B5B6">
            <path d="M47,31 C39.8202857,31 34,36.8202857 34,44 C34,51.1797143 39.8202857,57 47,57 C54.1797143,57 60,51.1797143 60,44 C60,36.8202857 54.1797143,31 47,31 M47.4394198,48.0209664 L41.9565246,51.7823966 C41.7417065,51.9291925 41.5000362,52 41.2600442,52 C40.8539038,52 40.4544765,51.7979397 40.2111279,51.4231783 C39.826805,50.8290865 39.9812054,50.0242993 40.5602072,49.6270868 L44.4470714,46.9588546 L40.5753116,44.382154 C39.991275,43.9935765 39.8251267,43.1922434 40.2010583,42.5912435 C40.5786682,41.9902437 41.3590619,41.8209966 41.9414202,42.2061201 L47.4243154,45.8552945 C47.7801078,46.091895 47.9966041,46.4977426 47.9999606,46.9346764 C48.0033172,47.3698832 47.7918556,47.7774579 47.4394198,48.0209664 M46.5605802,39.9790336 L52.0434754,36.2176034 C52.2582935,36.0708075 52.4999638,36 52.7399558,36 C53.1460962,36 53.5455235,36.2020603 53.7888721,36.5768217 C54.173195,37.1709135 54.0187946,37.9757007 53.4397928,38.3729132 L49.5529286,41.0411454 L53.4246884,43.617846 C54.008725,44.0064235 54.1748733,44.8077566 53.7989417,45.4087565 C53.4213318,46.0097563 52.6409381,46.1790034 52.0585798,45.7938799 L46.5756846,42.1447055 C46.2198922,41.908105 46.0033959,41.5022574 46.0000394,41.0653236 C45.9966828,40.6301168 46.2081444,40.2225421 46.5605802,39.9790336" id="Fill-1"></path>
            <path d="M52,28.7967571 L52,13.0069197 C52,11.8985286 51.1011079,11 50.0083425,11 L8.99165754,11 C7.89169545,11 7,11.8898926 7,12.9997073 L7,45.0002927 C7,46.1047006 7.89339733,47 8.99188419,47 L22,47 L22,51 L32.6084658,51 C31.5781132,48.8856081 31,46.5103168 31,44 C31,42.2538841 31.2797061,40.573097 31.7967571,39 C33.8963422,32.6121368 39.9095599,28 47,28 C48.0253882,28 49.0282477,28.0964567 50,28.2807916 L50,13 L9,13 L9,39 L31.7967571,39 C33.8963422,32.6121368 39.9095599,28 47,28 C47.3358507,28 47.6692845,28.0103478 48,28.030742 C47.6692845,28.0103478 47.3358507,28 47,28 C40.6737613,28 35.205054,31.671529 32.608461,37 L11,37 L11,15 L48,15 L48,28.030742 C49.3887023,28.1163789 50.729475,28.3791565 52,28.7967571 Z M32.608461,51 L16.9929654,51 C16.4461086,51 16,51.4477153 16,52 C16,52.5561352 16.4445658,53 16.9929654,53 L33.7693596,53 C33.3363253,52.3646411 32.9478613,51.6964752 32.6084664,51.0000011 L32.608461,51 Z" id="Combined-Shape"></path>
        </g>
    </g>
</svg>